# Blender v2.80 (sub 45) OBJ File: 'gate.blend'
# www.blender.org
mtllib gate_triangulated_faces.mtl
o Cube_Cube.001
v -0.679885 0.043586 0.679885
v -0.679885 -0.043586 0.679885
v -0.679885 0.043586 -0.679885
v -0.679885 -0.043586 -0.679885
v 0.679885 0.043586 0.679885
v 0.679885 -0.043586 0.679885
v 0.679885 0.043586 -0.679885
v 0.679885 -0.043586 -0.679885
v 0.679885 0.043586 -0.169971
v -0.509914 0.043586 0.679885
v -0.169971 0.043586 -0.084986
v 0.029999 0.043585 -0.025712
v -0.029999 0.043585 0.025712
v 0.029999 0.043585 0.025712
v -0.029999 0.043585 -0.025712
v 0.029999 1.791021 0.025712
v 0.029999 1.726226 0.000000
v 0.029999 1.726226 -0.025712
v -0.029999 1.726226 0.025712
v 0.029999 1.726226 0.025712
v -0.029999 1.726226 -0.025712
v 0.029999 1.791021 0.000000
v 0.029999 1.791021 -0.025712
v 0.029999 1.791021 0.025712
v 0.029999 1.726226 0.025712
v 0.029999 1.726226 -0.025712
v 0.029999 1.726226 0.000000
v 0.029999 1.791021 -0.025712
v 0.029999 1.791021 0.000000
v 0.534913 1.726226 0.025712
v 0.534913 1.726226 -0.025712
v -0.534913 1.726226 -0.025712
v -0.534913 1.726226 0.025712
v 0.484913 1.791021 0.025712
v 0.484913 1.791021 -0.025712
v -0.484913 1.791021 0.025712
v -0.484913 1.791021 -0.025712
v 0.534913 2.791021 -0.025712
v 0.534913 2.791021 0.025712
v -0.534913 2.791021 0.025712
v -0.534913 2.791021 -0.025712
v 0.484913 2.741021 -0.025712
v 0.484913 2.741021 0.025712
v -0.484913 2.741021 -0.025712
v -0.484913 2.741021 0.025712
v -0.020001 2.791021 -0.025712
v -0.020001 2.791021 0.025712
v -0.020001 2.741021 0.025712
v -0.020001 2.741021 -0.025712
v 0.020001 2.791021 -0.025712
v 0.020001 2.791021 0.025712
v 0.020001 2.741021 -0.025712
v 0.020001 2.741021 0.025712
vt 0.009599 0.044759
vt 0.011812 0.044418
vt 0.006080 0.013308
vt 0.065349 0.942376
vt 0.015657 0.000033
vt 0.005773 0.045594
vt 0.000000 0.000000
vt 0.000000 0.000000
vt 0.000000 0.000000
vt 0.000000 0.000000
vt 0.000000 0.000000
vt 0.000000 0.000000
vt 0.085982 0.091023
vt 0.085982 0.035790
vt 0.082341 0.035790
vt 0.000000 0.000000
vt 0.982612 -1.148338
vt 0.000099 -0.148537
vt 0.982751 -0.148537
vt 0.000000 0.000000
vt 0.000000 0.000000
vt 0.059565 0.996300
vt 0.067924 0.941376
vt 0.000033 0.002425
vt 0.000000 0.000000
vt 0.000000 0.000000
vt 0.015719 0.045066
vt 0.000000 0.000000
vt 0.000000 0.000000
vt 0.000000 0.000000
vt 0.000000 0.000000
vt 0.000000 0.000000
vt 0.000000 0.000000
vt 0.000000 0.000000
vt 0.000000 0.000000
vt 0.000000 0.000000
vt 0.000000 0.000000
vt 0.000000 0.000000
vt 0.000000 0.000000
vt 0.000000 0.000000
vt 0.000000 0.000000
vt 0.000000 0.000000
vt 0.000000 0.000000
vt 0.000000 0.000000
vt 0.073169 0.951132
vt 0.080509 0.996720
vt 0.000000 0.000000
vt 0.000000 0.000000
vt 0.080575 0.374725
vt 0.084216 0.374725
vt 0.084217 0.338968
vt 0.000000 0.000000
vt 0.000000 0.000000
vt 0.000000 0.000000
vt 0.082341 0.091023
vt 0.082341 0.130321
vt 0.000000 0.000000
vt 0.080575 0.338968
vt 0.000000 0.000000
vt 0.085982 0.000033
vt 0.082341 0.000033
vt 0.010768 0.013193
vt 0.072996 0.999967
vt 0.059565 0.952544
vt 0.000000 0.000000
vt 0.000000 0.000000
vt 0.000000 0.000000
vt 0.000000 0.000000
vt 0.000099 -1.131189
vt 0.982751 -1.131189
vt 0.073169 0.951132
vt 0.066989 0.995207
vt 0.000000 0.000000
vt 0.000000 0.000000
vt 0.000000 0.000000
vt 0.000000 0.000000
vt 0.085982 0.130321
vn -1.0000 0.0000 0.0000
vn 0.0000 0.0000 1.0000
vn 0.0000 0.0000 -1.0000
vn 1.0000 0.0000 0.0000
vn 0.0000 -1.0000 0.0000
vn 0.0000 1.0000 0.0000
usemtl Material.003
s off
f 49/1/1 48/2/1 47/3/1
f 34/4/2 39/5/2 43/6/2
f 19/7/2 36/8/2 33/9/2
f 7/10/3 8/11/3 4/12/3
f 51/13/4 53/14/4 52/15/4
f 4/12/5 8/11/5 6/16/5
f 10/17/2 2/18/2 6/19/2
f 6/16/4 9/20/4 5/21/4
f 31/22/3 35/23/3 38/24/3
f 3/25/1 4/12/1 2/26/1
f 42/27/5 43/6/5 48/2/5
f 37/28/6 22/29/6 23/30/6
f 22/29/2 29/31/2 28/32/2
f 20/33/2 25/34/2 16/35/2
f 23/30/2 28/32/2 26/36/2
f 17/37/2 27/38/2 25/34/2
f 18/39/2 26/36/2 27/38/2
f 24/40/2 16/35/2 29/31/2
f 15/41/1 13/42/1 19/7/1
f 27/38/5 31/43/5 30/44/5
f 29/45/6 34/4/6 35/23/6
f 30/46/4 31/22/4 38/24/4
f 11/47/6 3/25/6 1/48/6
f 21/49/5 19/50/5 33/51/5
f 47/3/6 39/5/6 38/24/6
f 36/8/4 37/28/4 44/52/4
f 42/27/1 35/23/1 34/4/1
f 37/28/3 21/53/3 32/54/3
f 51/13/6 50/55/6 41/56/6
f 14/57/4 17/37/4 20/33/4
f 41/56/1 32/58/1 33/51/1
f 10/59/6 14/57/6 13/42/6
f 53/14/5 45/60/5 44/61/5
f 49/1/1 47/3/1 46/62/1
f 30/46/2 34/4/2 25/63/2
f 25/63/2 34/4/2 16/64/2
f 48/2/2 43/6/2 47/3/2
f 47/3/2 43/6/2 39/5/2
f 30/46/2 39/5/2 34/4/2
f 40/65/2 45/66/2 51/67/2
f 51/67/2 45/66/2 53/68/2
f 14/57/2 19/7/2 13/42/2
f 36/8/2 19/7/2 24/40/2
f 24/40/2 19/7/2 20/33/2
f 20/33/2 19/7/2 14/57/2
f 33/9/2 36/8/2 40/65/2
f 40/65/2 36/8/2 45/66/2
f 7/10/3 4/12/3 3/25/3
f 51/13/4 52/15/4 50/55/4
f 4/12/5 6/16/5 2/26/5
f 2/18/2 10/17/2 1/69/2
f 10/17/2 6/19/2 5/70/2
f 7/10/4 9/20/4 8/11/4
f 8/11/4 9/20/4 6/16/4
f 38/24/3 42/27/3 46/62/3
f 46/62/3 42/27/3 49/1/3
f 28/71/3 35/23/3 26/72/3
f 26/72/3 35/23/3 31/22/3
f 38/24/3 35/23/3 42/27/3
f 3/25/1 2/26/1 1/48/1
f 42/27/5 48/2/5 49/1/5
f 24/40/6 22/29/6 36/8/6
f 36/8/6 22/29/6 37/28/6
f 22/29/2 28/32/2 23/30/2
f 20/33/2 16/35/2 24/40/2
f 23/30/2 26/36/2 18/39/2
f 17/37/2 25/34/2 20/33/2
f 18/39/2 27/38/2 17/37/2
f 24/40/2 29/31/2 22/29/2
f 15/41/1 19/7/1 21/53/1
f 31/43/5 27/38/5 26/36/5
f 27/38/5 30/44/5 25/34/5
f 34/4/6 29/45/6 16/64/6
f 29/45/6 35/23/6 28/71/6
f 30/46/4 38/24/4 39/5/4
f 7/10/6 12/73/6 9/20/6
f 12/73/6 11/47/6 15/41/6
f 11/47/6 1/48/6 10/59/6
f 3/25/6 11/47/6 7/10/6
f 7/10/6 11/47/6 12/73/6
f 21/49/5 33/51/5 32/58/5
f 47/3/6 38/24/6 46/62/6
f 36/8/4 44/52/4 45/66/4
f 42/27/1 34/4/1 43/6/1
f 15/41/3 18/39/3 12/73/3
f 18/39/3 21/53/3 23/30/3
f 23/30/3 21/53/3 37/28/3
f 44/52/3 50/74/3 52/75/3
f 44/52/3 41/76/3 50/74/3
f 21/53/3 18/39/3 15/41/3
f 37/28/3 41/76/3 44/52/3
f 37/28/3 32/54/3 41/76/3
f 51/13/6 41/56/6 40/77/6
f 18/39/4 17/37/4 12/73/4
f 12/73/4 17/37/4 14/57/4
f 41/56/1 33/51/1 40/77/1
f 12/73/6 14/57/6 9/20/6
f 9/20/6 14/57/6 5/21/6
f 5/21/6 14/57/6 10/59/6
f 10/59/6 13/42/6 11/47/6
f 11/47/6 13/42/6 15/41/6
f 53/14/5 44/61/5 52/15/5
