# Blender v2.80 (sub 45) OBJ File: 'gate_1mx1m_150cm.blend'
# www.blender.org
mtllib gate_1mx1m_150cm.mtl
o Cube
v 0.056491 0.100000 -0.056491
v 0.750000 -0.100000 -0.750000
v 0.056491 0.100000 0.056491
v 0.750000 -0.100000 0.750000
v -0.056491 0.100000 -0.056491
v -0.750000 -0.100000 -0.750000
v -0.056491 0.100000 0.056491
v -0.750000 -0.100000 0.750000
v 0.750000 0.100000 0.750000
v -0.750000 0.100000 0.750000
v 0.750000 0.100000 -0.750000
v -0.750000 0.100000 -0.750000
v 0.056491 1.600000 0.056491
v -0.056491 1.600000 0.056491
v 0.056491 1.600000 -0.056491
v -0.056491 1.600000 -0.056491
v 0.056491 1.700000 0.056491
v -0.056491 1.700000 0.056491
v 0.056491 1.700000 -0.056491
v -0.056491 1.700000 -0.056491
v -0.056491 1.600000 -0.500000
v 0.056491 1.600000 -0.500000
v -0.056491 1.700000 -0.500000
v 0.056491 1.700000 -0.500000
v 0.056491 1.600000 0.500000
v -0.056491 1.600000 0.500000
v 0.056491 1.700000 0.500000
v -0.056491 1.700000 0.500000
v 0.056491 1.600000 -0.278245
v 0.056491 1.700000 -0.278245
v -0.056491 1.700000 -0.278245
v -0.056491 1.600000 -0.278245
v 0.056491 1.600000 -0.389123
v -0.056491 1.700000 -0.389123
v 0.056491 1.700000 -0.389123
v -0.056491 1.600000 -0.389123
v -0.056491 1.700000 0.278245
v 0.056491 1.700000 0.278245
v 0.056491 1.600000 0.278245
v -0.056491 1.600000 0.278245
v -0.056491 1.700000 0.389123
v 0.056491 1.700000 0.389123
v 0.056491 1.600000 0.389123
v -0.056491 1.600000 0.389123
v -0.056491 2.499999 -0.500000
v 0.056491 2.499999 -0.500000
v -0.056491 2.499999 -0.389123
v 0.056491 2.499999 -0.389123
v 0.056491 2.500455 0.500000
v -0.056491 2.500455 0.500000
v -0.056491 2.500455 0.389123
v 0.056491 2.500455 0.389123
v 0.056491 2.600914 0.500000
v -0.056491 2.600914 0.500000
v -0.056491 2.600914 0.389123
v 0.056491 2.600914 0.389123
v -0.056491 2.600095 -0.500000
v 0.056491 2.600095 -0.500000
v -0.056491 2.600095 -0.389123
v 0.056491 2.600095 -0.389123
v 0.056491 2.499999 -0.389123
v -0.056491 2.499999 -0.389123
v 0.056491 2.600095 -0.389123
v -0.056491 2.600095 -0.389123
vt 0.509415 0.134415
vt 0.509415 0.115585
vt 0.509415 0.115585
vt 0.625000 0.250000
vt 0.375000 0.500000
vt 0.375000 0.250000
vt 0.625000 0.500000
vt 0.375000 0.750000
vt 0.625000 0.750000
vt 0.375000 1.000000
vt 0.375000 0.500000
vt 0.125000 0.750000
vt 0.125000 0.500000
vt 0.875000 0.500000
vt 0.625000 0.500000
vt 0.375000 0.250000
vt 0.490585 0.134415
vt 0.375000 0.000000
vt 0.490585 0.115585
vt 0.625000 0.250000
vt 0.625000 0.000000
vt 0.490585 0.115585
vt 0.490585 0.134415
vt 0.490585 0.134415
vt 0.509415 0.134415
vt 0.509415 0.115585
vt 0.490585 0.115585
vt 0.509415 0.134415
vt 0.490585 0.134415
vt 0.490585 0.134415
vt 0.490585 0.115585
vt 0.490585 0.115585
vt 0.490585 0.115585
vt 0.509415 0.115585
vt 0.490585 0.115585
vt 0.509415 0.115585
vt 0.509415 0.115585
vt 0.509415 0.115585
vt 0.490585 0.134415
vt 0.509415 0.134415
vt 0.509415 0.134415
vt 0.490585 0.134415
vt 0.509415 0.134415
vt 0.490585 0.115585
vt 0.509415 0.115585
vt 0.509415 0.115585
vt 0.490585 0.115585
vt 0.509415 0.134415
vt 0.509415 0.134415
vt 0.509415 0.134415
vt 0.490585 0.134415
vt 0.490585 0.134415
vt 0.490585 0.115585
vt 0.509415 0.115585
vt 0.509415 0.115585
vt 0.490585 0.115585
vt 0.509415 0.115585
vt 0.490585 0.115585
vt 0.490585 0.134415
vt 0.490585 0.134415
vt 0.509415 0.134415
vt 0.490585 0.134415
vt 0.509415 0.134415
vt 0.509415 0.134415
vt 0.490585 0.134415
vt 0.509415 0.134415
vt 0.490585 0.115585
vt 0.509415 0.115585
vt 0.509415 0.115585
vt 0.490585 0.115585
vt 0.509415 0.115585
vt 0.490585 0.115585
vt 0.000000 0.000000
vt 0.000000 0.000000
vt 0.000000 0.000000
vt 0.000000 0.000000
vt 0.000000 0.000000
vt 0.000000 0.000000
vt 0.000000 0.000000
vt 0.000000 0.000000
vt 0.625000 0.750000
vt 0.625000 1.000000
vt 0.375000 0.750000
vt 0.875000 0.750000
vn -1.0000 0.0000 0.0000
vn 0.0000 0.0000 1.0000
vn 0.0000 -1.0000 0.0000
vn 1.0000 0.0000 0.0000
vn 0.0000 0.0000 -1.0000
vn 0.0000 1.0000 -0.0000
vn 0.0000 -1.0000 0.0006
vn 0.0000 -1.0000 0.0011
usemtl Material
s off
f 7/1/1 16/2/1 5/3/1
f 9/4/2 8/5/2 4/6/2
f 10/7/1 6/8/1 8/5/1
f 2/9/3 8/10/3 6/8/3
f 11/11/4 4/12/4 2/13/4
f 12/14/5 2/9/5 6/15/5
f 7/1/6 9/16/6 3/17/6
f 3/17/6 11/18/6 1/19/6
f 5/3/6 10/20/6 7/1/6
f 1/19/6 12/21/6 5/3/6
f 15/22/4 17/23/4 13/24/4
f 3/17/2 14/25/2 7/1/2
f 5/3/5 15/22/5 1/19/5
f 1/19/4 13/24/4 3/17/4
f 20/26/6 17/23/6 19/27/6
f 14/25/1 20/26/1 16/2/1
f 41/28/5 52/29/5 42/30/5
f 33/31/4 24/32/4 35/33/4
f 21/34/5 24/32/5 22/35/5
f 34/36/1 21/34/1 36/37/1
f 35/33/2 47/38/2 34/36/2
f 36/37/3 22/35/3 33/31/3
f 25/39/2 28/40/2 26/41/2
f 42/30/4 25/39/4 43/42/4
f 43/42/3 26/41/3 44/43/3
f 44/43/1 28/40/1 41/28/1
f 16/2/3 29/44/3 15/22/3
f 19/27/6 31/45/6 20/26/6
f 20/26/1 32/46/1 16/2/1
f 15/22/4 30/47/4 19/27/4
f 32/46/3 33/31/3 29/44/3
f 30/47/6 34/36/6 31/45/6
f 31/45/1 36/37/1 32/46/1
f 29/44/4 35/33/4 30/47/4
f 14/25/1 37/48/1 18/49/1
f 13/24/3 40/50/3 14/25/3
f 17/23/4 39/51/4 13/24/4
f 18/49/6 38/52/6 17/23/6
f 40/50/1 41/28/1 37/48/1
f 39/51/3 44/43/3 40/50/3
f 38/52/4 43/42/4 39/51/4
f 37/48/6 42/30/6 38/52/6
f 47/38/2 61/53/2 62/54/2
f 23/55/5 46/56/5 24/32/5
f 34/36/1 45/57/1 23/55/1
f 24/32/4 48/58/4 35/33/4
f 52/29/4 53/59/4 49/60/4
f 28/40/1 51/61/1 41/28/1
f 42/30/4 49/60/4 27/62/4
f 27/62/2 50/63/2 28/40/2
f 55/64/6 53/59/6 56/65/6
f 49/60/2 54/66/2 50/63/2
f 51/61/5 56/65/5 52/29/5
f 50/63/1 55/64/1 51/61/1
f 60/67/6 57/68/6 59/69/6
f 47/38/1 57/68/1 45/57/1
f 46/56/4 60/67/4 48/58/4
f 45/57/5 58/70/5 46/56/5
f 61/53/2 64/71/2 62/54/2
f 48/58/2 63/72/2 61/53/2
f 59/69/2 62/54/2 64/71/2
f 60/67/2 64/71/2 63/72/2
f 64/73/1 62/74/1 51/75/1
f 51/75/7 62/74/7 61/76/7
f 51/75/7 61/76/7 52/77/7
f 52/77/4 61/76/4 63/78/4
f 55/79/4 51/75/4 64/73/4
f 56/80/4 52/77/4 63/78/4
f 55/79/8 64/73/8 63/78/8
f 55/79/8 63/78/8 56/80/8
f 7/1/1 14/25/1 16/2/1
f 9/4/2 10/7/2 8/5/2
f 10/7/1 12/81/1 6/8/1
f 2/9/3 4/82/3 8/10/3
f 11/11/4 9/83/4 4/12/4
f 12/14/5 11/84/5 2/9/5
f 7/1/6 10/20/6 9/16/6
f 3/17/6 9/16/6 11/18/6
f 5/3/6 12/21/6 10/20/6
f 1/19/6 11/18/6 12/21/6
f 15/22/4 19/27/4 17/23/4
f 3/17/2 13/24/2 14/25/2
f 5/3/5 16/2/5 15/22/5
f 1/19/4 15/22/4 13/24/4
f 20/26/6 18/49/6 17/23/6
f 14/25/1 18/49/1 20/26/1
f 41/28/5 51/61/5 52/29/5
f 33/31/4 22/35/4 24/32/4
f 21/34/5 23/55/5 24/32/5
f 34/36/1 23/55/1 21/34/1
f 35/33/2 48/58/2 47/38/2
f 36/37/3 21/34/3 22/35/3
f 25/39/2 27/62/2 28/40/2
f 42/30/4 27/62/4 25/39/4
f 43/42/3 25/39/3 26/41/3
f 44/43/1 26/41/1 28/40/1
f 16/2/3 32/46/3 29/44/3
f 19/27/6 30/47/6 31/45/6
f 20/26/1 31/45/1 32/46/1
f 15/22/4 29/44/4 30/47/4
f 32/46/3 36/37/3 33/31/3
f 30/47/6 35/33/6 34/36/6
f 31/45/1 34/36/1 36/37/1
f 29/44/4 33/31/4 35/33/4
f 14/25/1 40/50/1 37/48/1
f 13/24/3 39/51/3 40/50/3
f 17/23/4 38/52/4 39/51/4
f 18/49/6 37/48/6 38/52/6
f 40/50/1 44/43/1 41/28/1
f 39/51/3 43/42/3 44/43/3
f 38/52/4 42/30/4 43/42/4
f 37/48/6 41/28/6 42/30/6
f 47/38/2 48/58/2 61/53/2
f 23/55/5 45/57/5 46/56/5
f 34/36/1 47/38/1 45/57/1
f 24/32/4 46/56/4 48/58/4
f 52/29/4 56/65/4 53/59/4
f 28/40/1 50/63/1 51/61/1
f 42/30/4 52/29/4 49/60/4
f 27/62/2 49/60/2 50/63/2
f 55/64/6 54/66/6 53/59/6
f 49/60/2 53/59/2 54/66/2
f 51/61/5 55/64/5 56/65/5
f 50/63/1 54/66/1 55/64/1
f 60/67/6 58/70/6 57/68/6
f 47/38/1 59/69/1 57/68/1
f 46/56/4 58/70/4 60/67/4
f 45/57/5 57/68/5 58/70/5
f 61/53/2 63/72/2 64/71/2
f 48/58/2 60/67/2 63/72/2
f 59/69/2 47/38/2 62/54/2
f 60/67/2 59/69/2 64/71/2
